<svg width="60" height="60" viewBox="0 0 60 60" fill="none" xmlns="http://www.w3.org/2000/svg">
<path d="M58.5975 31.0409C58.187 30.2091 49.4044 15.732 49.1819 15.3705C47.5424 12.7099 44.7006 11.1215 41.58 11.1215C41.1348 11.1215 40.6976 11.1553 40.2697 11.2186C40.2693 11.2177 40.2681 11.216 40.2678 11.2155C39.5116 9.99009 38.2027 9.25838 36.7667 9.25838C34.4993 9.25838 32.6546 11.103 32.6546 13.3705V20.5555H27.3453V13.3705C27.3453 11.1031 25.5007 9.25838 23.2332 9.25838C21.7998 9.25838 20.4934 9.9874 19.7305 11.2186C19.3026 11.1553 18.8652 11.1215 18.4198 11.1215C15.2993 11.1215 12.4575 12.71 10.8179 15.3707C10.7953 15.4074 10.7265 15.5192 9.07393 18.2896C8.78987 18.7659 8.94573 19.3823 9.42186 19.6664C9.89811 19.9503 10.5145 19.7948 10.7986 19.3184C12.1584 17.0389 12.4896 16.4863 12.5279 16.424C13.7989 14.3613 16.0016 13.1298 18.42 13.1298C22.2342 13.1298 25.3371 16.2328 25.3371 20.0469V20.0475V29.9426C22.9312 26.0191 18.6027 23.3961 13.6727 23.3961C11.4463 23.3961 9.34264 23.9314 7.48323 24.8793C7.96077 24.0781 8.46526 23.2317 8.97151 22.3828C9.25545 21.9064 9.09959 21.29 8.62323 21.006C8.14686 20.7221 7.53057 20.878 7.24651 21.3543C5.113 24.9325 1.755 30.3016 1.33078 31.188C0.478124 32.97 0 34.9646 0 37.0689C0 44.608 6.13358 50.7416 13.6727 50.7416C21.2118 50.7416 27.3453 44.608 27.3453 37.0689V34.4009H32.6546V37.0689C32.6546 44.608 38.7882 50.7416 46.3272 50.7416C53.8663 50.7416 59.9999 44.608 59.9999 37.0689C60 34.9066 59.4953 32.8602 58.5975 31.0409ZM25.3371 14.414C24.4094 13.277 23.2078 12.3725 21.8335 11.8015C22.2137 11.4604 22.7066 11.2666 23.2333 11.2666C24.3934 11.2666 25.3371 12.2103 25.3371 13.3704V14.414ZM13.6727 48.7331C7.24089 48.7331 2.00824 43.5006 2.00824 37.0688C2.00824 30.637 7.24089 25.4043 13.6727 25.4043C20.1045 25.4043 25.3371 30.637 25.3371 37.0688C25.3371 43.5006 20.1044 48.7331 13.6727 48.7331ZM27.3452 28.537V22.5636H32.6545V28.537H27.3452ZM32.6546 32.3927H27.3453V30.5453H32.6546V32.3927ZM34.6628 13.3705C34.6628 12.2104 35.6065 11.2667 36.7666 11.2667C37.295 11.2667 37.7895 11.4618 38.1677 11.8011C36.7929 12.3722 35.5907 13.2768 34.6628 14.4141V13.3705ZM34.6628 20.0475V20.0469C34.6628 16.2327 37.7658 13.1298 41.5799 13.1298C43.9984 13.1298 46.201 14.3614 47.472 16.424C47.5924 16.6196 50.1021 20.8284 52.5167 24.8793C50.6571 23.9313 48.5535 23.396 46.3271 23.396C41.3971 23.396 37.0686 26.0191 34.6627 29.9425V20.0475H34.6628ZM46.3273 48.7331C39.8955 48.7331 34.6629 43.5005 34.6629 37.0687C34.6629 30.6369 39.8956 25.4042 46.3273 25.4042C52.7591 25.4042 57.9918 30.6369 57.9918 37.0687C57.9918 43.5005 52.759 48.7331 46.3273 48.7331Z" fill="white"/>
<path d="M55.1305 33.9046C54.9428 33.3829 54.3678 33.1118 53.8459 33.2995C53.3242 33.4871 53.0531 34.0622 53.2407 34.5841C53.5264 35.3789 53.6714 36.215 53.6714 37.0688C53.6714 41.1184 50.3769 44.413 46.3272 44.413C42.2775 44.413 38.9829 41.1184 38.9829 37.0688C38.9829 33.0191 42.2775 29.7245 46.3272 29.7245C48.3595 29.7245 50.3196 30.5784 51.705 32.067C52.0828 32.4729 52.7181 32.4958 53.1242 32.118C53.5302 31.7402 53.553 31.1049 53.1752 30.6987C51.4114 28.8033 48.9153 27.7162 46.3272 27.7162C41.1701 27.7162 36.9747 31.9116 36.9747 37.0687C36.9747 42.2257 41.1701 46.4212 46.3272 46.4212C51.4842 46.4212 55.6796 42.2257 55.6796 37.0687C55.6798 35.9828 55.4949 34.9182 55.1305 33.9046Z" fill="white"/>
<path d="M13.6727 27.7164C8.51567 27.7164 4.32025 31.9119 4.32025 37.0689C4.32025 42.226 8.51567 46.4214 13.6727 46.4214C18.8298 46.4214 23.0252 42.226 23.0252 37.0689C23.0252 31.9119 18.8297 27.7164 13.6727 27.7164ZM13.6727 44.413C9.62309 44.413 6.32849 41.1186 6.32849 37.0688C6.32849 33.0192 9.62298 29.7246 13.6727 29.7246C17.7225 29.7246 21.017 33.019 21.017 37.0688C21.017 41.1186 17.7223 44.413 13.6727 44.413Z" fill="white"/>
</svg>
