<svg width="125" height="125" viewBox="0 0 125 125" fill="none" xmlns="http://www.w3.org/2000/svg">
<path d="M6.20833 124.167H117.958C119.605 124.167 121.184 123.513 122.348 122.348C123.513 121.184 124.167 119.605 124.167 117.958V6.20833C124.167 4.56178 123.513 2.98267 122.348 1.81838C121.184 0.65409 119.605 0 117.958 0H6.20833C4.56178 0 2.98267 0.65409 1.81838 1.81838C0.65409 2.98267 0 4.56178 0 6.20833V117.958C0 119.605 0.65409 121.184 1.81838 122.348C2.98267 123.513 4.56178 124.167 6.20833 124.167ZM21.1952 111.75L49.6667 83.2786L57.694 91.306C58.8583 92.4698 60.4371 93.1237 62.0833 93.1237C63.7296 93.1237 65.3084 92.4698 66.4726 91.306L93.125 64.6536L111.75 83.2786V111.75H21.1952ZM111.75 12.4167V65.7214L97.5143 51.4857C96.3501 50.3218 94.7712 49.668 93.125 49.668C91.4788 49.668 89.8999 50.3218 88.7357 51.4857L62.0833 78.1381L54.056 70.1107C52.8917 68.9468 51.3129 68.293 49.6667 68.293C48.0204 68.293 46.4416 68.9468 45.2774 70.1107L12.4167 102.971V12.4167H111.75ZM24.8333 40.3542C24.8333 37.2844 25.7436 34.2836 27.4491 31.7313C29.1545 29.1789 31.5785 27.1895 34.4146 26.0148C37.2507 24.84 40.3714 24.5327 43.3821 25.1316C46.3929 25.7304 49.1584 27.2087 51.3291 29.3793C53.4997 31.5499 54.9779 34.3155 55.5768 37.3262C56.1756 40.3369 55.8683 43.4577 54.6935 46.2937C53.5188 49.1298 51.5295 51.5538 48.9771 53.2593C46.4247 54.9647 43.4239 55.875 40.3542 55.875C36.2378 55.875 32.29 54.2398 29.3793 51.3291C26.4686 48.4183 24.8333 44.4705 24.8333 40.3542Z" fill="white"/>
</svg>
