<svg width="43" height="46" viewBox="0 0 43 46" fill="none" xmlns="http://www.w3.org/2000/svg">
<path d="M4.77778 0C2.14283 0 0 2.12537 0 4.73885V33.1719C0 35.7854 2.14283 37.9108 4.77778 37.9108H13.3443L21.5 46L29.6557 37.9108H38.2222C40.8572 37.9108 43 35.7854 43 33.1719V4.73885C43 2.12537 40.8572 0 38.2222 0H4.77778ZM38.2222 33.1719H27.6777L21.5 39.2993L15.3223 33.1719H4.77778V4.73885H38.2222V33.1719Z" fill="white"/>
<path d="M9 12H34V16.6667H9V12ZM9 21.3333H26.5V26H9V21.3333Z" fill="white"/>
</svg>
