<svg width="31" height="31" viewBox="0 0 31 31" fill="none" xmlns="http://www.w3.org/2000/svg">
<path d="M13.9713 4.05738H7.91804C5.4965 4.05738 4.28572 4.05738 3.36083 4.52864C2.54725 4.94317 1.8858 5.60463 1.47126 6.4182C1 7.3431 1 8.55387 1 10.9754V23.082C1 25.5036 1 26.7144 1.47126 27.6392C1.8858 28.4528 2.54725 29.1142 3.36083 29.5287C4.28572 30 5.4965 30 7.91804 30H20.0246C22.4462 30 23.6569 30 24.5819 29.5287C25.3955 29.1142 26.0569 28.4528 26.4714 27.6392C26.9427 26.7144 26.9427 25.5036 26.9427 23.082V17.0287M9.64751 21.3524H12.061C12.766 21.3524 13.1185 21.3524 13.4503 21.2729C13.7443 21.2023 14.0255 21.0858 14.2835 20.9277C14.5744 20.7494 14.8237 20.5002 15.3222 20.0017L29.1045 6.21927C30.2985 5.02528 30.2985 3.08946 29.1045 1.89549C27.9106 0.701506 25.9747 0.701506 24.7808 1.89547L10.9983 15.6779C10.4998 16.1764 10.2505 16.4256 10.0723 16.7166C9.91424 16.9745 9.79778 17.2557 9.72715 17.5498C9.64751 17.8815 9.64751 18.234 9.64751 18.9391V21.3524Z" stroke="white" stroke-width="2" stroke-linecap="round" stroke-linejoin="round"/>
</svg>
