<svg width="34" height="29" viewBox="0 0 34 29" fill="none" xmlns="http://www.w3.org/2000/svg">
<path d="M31.7205 13.7038C31.5368 13.4588 28.2293 9.2325 23.3293 6.72125L24.738 2.1275C24.9218 1.45375 24.5543 0.718752 23.8805 0.535002C23.2068 0.351252 22.4718 0.718752 22.288 1.3925L20.9405 5.68C19.4705 5.19 17.878 4.8225 16.2243 4.8225C7.64927 4.8225 1.03427 13.3363 0.728018 13.7038C0.360518 14.1938 0.360518 14.8063 0.728018 15.2963C0.973018 15.6638 7.15927 23.5038 15.2443 24.1163L14.3868 26.8725C14.203 27.5463 14.5705 28.2813 15.2443 28.465C15.3668 28.5263 15.4893 28.5263 15.6118 28.5263C16.163 28.5263 16.653 28.1588 16.8368 27.6075L17.9393 23.9938C25.5955 22.9525 31.4143 15.6025 31.7205 15.235C32.088 14.8063 32.088 14.1938 31.7205 13.7038ZM3.42302 14.5C5.19927 12.4788 10.3443 7.395 16.2243 7.395C17.5718 7.395 18.9193 7.70125 20.2055 8.13L19.7768 9.4775C18.7355 8.7425 17.5105 8.375 16.2243 8.375C12.8555 8.375 10.0993 11.1313 10.0993 14.5C10.0993 17.8688 12.8555 20.625 16.2243 20.625C16.2855 20.625 16.2855 20.625 16.3468 20.625L16.0405 21.605C10.2218 21.4825 5.19927 16.46 3.42302 14.5ZM17.0818 17.93C16.7755 17.9913 16.4693 18.0525 16.163 18.0525C14.203 18.0525 12.6105 16.46 12.6105 14.5C12.6105 12.54 14.203 10.9475 16.163 10.9475C17.2043 10.9475 18.1843 11.4375 18.858 12.1725L17.0818 17.93ZM18.7968 21.2988L22.4718 9.2325C25.473 10.8863 27.8618 13.275 28.9643 14.5C27.4943 16.215 23.5743 20.135 18.7968 21.2988Z" fill="#D0CEF6"/>
</svg>
