<svg width="33" height="21" viewBox="0 0 33 21" fill="none" xmlns="http://www.w3.org/2000/svg">
<path d="M16.2468 19.3875C8.37183 19.3875 2.29683 11.5688 2.01558 11.2313C1.67808 10.7813 1.67808 10.2188 2.01558 9.76875C2.29683 9.43125 8.37183 1.6125 16.2468 1.6125C24.1218 1.6125 30.1968 9.43125 30.4781 9.76875C30.8156 10.2188 30.8156 10.7813 30.4781 11.2313C30.1968 11.5688 24.0656 19.3875 16.2468 19.3875ZM4.49058 10.5C6.12183 12.3563 10.8468 17.025 16.2468 17.025C21.6468 17.025 26.3718 12.3563 28.0031 10.5C26.3718 8.64375 21.6468 3.975 16.2468 3.975C10.8468 3.975 6.12183 8.64375 4.49058 10.5ZM16.2468 16.125C13.1531 16.125 10.6218 13.5938 10.6218 10.5C10.6218 7.40625 13.1531 4.875 16.2468 4.875C19.3406 4.875 21.8718 7.40625 21.8718 10.5C21.8718 13.5938 19.2843 16.125 16.2468 16.125ZM16.2468 7.2375C14.4468 7.2375 12.9843 8.7 12.9843 10.5C12.9843 12.3 14.4468 13.7625 16.2468 13.7625C18.0468 13.7625 19.5093 12.3 19.5093 10.5C19.5093 8.7 18.0468 7.2375 16.2468 7.2375Z" fill="#D0CEF6"/>
</svg>
