<svg width="28" height="28" viewBox="0 0 28 28" fill="none" xmlns="http://www.w3.org/2000/svg">
<path d="M28.0007 14.311C28.0007 13.1599 27.9054 12.3199 27.6991 11.4488H14.2863V16.6443H22.1593C22.0006 17.9355 21.1434 19.88 19.2386 21.1866L19.2119 21.3606L23.4528 24.5802L23.7466 24.6089C26.445 22.1667 28.0007 18.5732 28.0007 14.311Z" fill="#4285F4" fill-opacity="0.7"/>
<path d="M14.2854 28C18.1425 28 21.3806 26.7555 23.7458 24.6088L19.2378 21.1864C18.0314 22.0109 16.4123 22.5864 14.2854 22.5864C10.5077 22.5864 7.30132 20.1442 6.15835 16.7687L5.99082 16.7826L1.58111 20.1271L1.52344 20.2842C3.87263 24.8576 8.69808 28 14.2854 28Z" fill="#34A853" fill-opacity="0.7"/>
<path d="M6.1587 16.7691C5.85712 15.898 5.68258 14.9646 5.68258 14.0002C5.68258 13.0357 5.85712 12.1024 6.14283 11.2313L6.13484 11.0457L1.66986 7.64752L1.52378 7.71562C0.555564 9.61348 0 11.7446 0 14.0002C0 16.2557 0.555564 18.3868 1.52378 20.2847L6.1587 16.7691Z" fill="#FBBC05" fill-opacity="0.7"/>
<path d="M14.2855 5.41334C16.968 5.41334 18.7775 6.5489 19.8094 7.49785L23.8411 3.64003C21.365 1.38446 18.1426 0 14.2855 0C8.69808 0 3.87264 3.14222 1.52344 7.71555L6.14251 11.2312C7.30136 7.85561 10.5077 5.41334 14.2855 5.41334Z" fill="#EB4335" fill-opacity="0.7"/>
</svg>
