<svg width="40" height="40" viewBox="0 0 40 40" fill="none" xmlns="http://www.w3.org/2000/svg">
<path d="M15.1299 35.7232C15.1299 32.0723 18.0896 29.1126 21.7406 29.1126H31.8526C35.5036 29.1126 38.4633 32.0723 38.4633 35.7232C38.4633 37.1836 37.2794 38.3675 35.819 38.3675H17.7742C16.3138 38.3675 15.1299 37.1836 15.1299 35.7232Z" fill="url(#paint0_linear_16_3)"/>
<path d="M17.0389 35.3252C17.0389 32.7955 19.0897 30.7448 21.6193 30.7448H31.9737C34.5034 30.7448 36.5541 32.7955 36.5541 35.3252C36.5541 36.0057 36.0024 36.5573 35.3219 36.5573H18.2711C17.5906 36.5573 17.0389 36.0057 17.0389 35.3252Z" stroke="white" stroke-width="2"/>
<ellipse cx="2.72727" cy="24.9691" rx="2.72727" ry="2.84458" fill="black"/>
<ellipse cx="4.24241" cy="29.0779" rx="2.72727" ry="2.84458" fill="black"/>
<ellipse cx="4.09087" cy="29.2359" rx="1.36364" ry="1.42229" fill="white"/>
<ellipse cx="2.57573" cy="24.811" rx="1.36364" ry="1.42229" fill="white"/>
<ellipse cx="21.8182" cy="18.9638" rx="18.1818" ry="18.9638" fill="url(#paint1_linear_16_3)"/>
<path d="M37.4047 18.9638C37.4047 28.0381 30.3675 35.2853 21.8182 35.2853C13.2689 35.2853 6.23163 28.0381 6.23163 18.9638C6.23163 9.88959 13.2689 2.6424 21.8182 2.6424C30.3675 2.6424 37.4047 9.88959 37.4047 18.9638Z" fill="url(#paint2_linear_16_3)" stroke="white" stroke-width="3"/>
<path d="M33.2214 14.6802C33.2214 17.0777 32.1916 19.0213 30.9213 19.0213C29.6509 19.0213 28.6212 17.0777 28.6212 14.6802C28.6212 12.2826 29.6509 10.3391 30.9213 10.3391C32.1916 10.3391 33.2214 12.2826 33.2214 14.6802Z" fill="white"/>
<path d="M26.2517 14.6802C26.2517 17.0777 25.2219 19.0213 23.9516 19.0213C22.6813 19.0213 21.6515 17.0777 21.6515 14.6802C21.6515 12.2826 22.6813 10.3391 23.9516 10.3391C25.2219 10.3391 26.2517 12.2826 26.2517 14.6802Z" fill="white"/>
<path d="M10.1735 37.3557C10.1735 33.7048 13.1332 30.7451 16.7842 30.7451H26.8962C30.5472 30.7451 33.5069 33.7048 33.5069 37.3557C33.5069 38.8161 32.323 40 30.8626 40H12.8178C11.3574 40 10.1735 38.8161 10.1735 37.3557Z" fill="url(#paint3_linear_16_3)"/>
<path d="M12.0826 36.9576C12.0826 34.4279 14.1334 32.3772 16.663 32.3772H27.0174C29.5471 32.3772 31.5978 34.4279 31.5978 36.9576C31.5978 37.6381 31.0461 38.1898 30.3656 38.1898H13.3148C12.6343 38.1898 12.0826 37.6381 12.0826 36.9576Z" stroke="white" stroke-width="2"/>
<defs>
<linearGradient id="paint0_linear_16_3" x1="11.8436" y1="33.9114" x2="44.5431" y2="33.9114" gradientUnits="userSpaceOnUse">
<stop stop-color="#360857"/>
<stop offset="1" stop-color="#0E0216"/>
</linearGradient>
<linearGradient id="paint1_linear_16_3" x1="10.8653" y1="8.91072" x2="69.4808" y2="40.0607" gradientUnits="userSpaceOnUse">
<stop/>
<stop offset="1"/>
</linearGradient>
<linearGradient id="paint2_linear_16_3" x1="6.06058" y1="10.7462" x2="60.2537" y2="56.6803" gradientUnits="userSpaceOnUse">
<stop stop-color="#360857"/>
<stop offset="1" stop-opacity="0"/>
</linearGradient>
<linearGradient id="paint3_linear_16_3" x1="6.88714" y1="35.5439" x2="39.5867" y2="35.5439" gradientUnits="userSpaceOnUse">
<stop stop-color="#360857"/>
<stop offset="1" stop-color="#0E0216"/>
</linearGradient>
</defs>
</svg>
