<svg width="23" height="25" viewBox="0 0 23 25" fill="none" xmlns="http://www.w3.org/2000/svg">
<path d="M19.6667 11H3.33333C2.04467 11 1 12.0582 1 13.3636V21.6364C1 22.9418 2.04467 24 3.33333 24H19.6667C20.9553 24 22 22.9418 22 21.6364V13.3636C22 12.0582 20.9553 11 19.6667 11Z" stroke="#D0CEF6" stroke-width="2" stroke-linecap="round" stroke-linejoin="round"/>
<path d="M6 11V6.55556C6 5.08213 6.57946 3.66905 7.61091 2.62718C8.64236 1.58532 10.0413 1 11.5 1C12.9587 1 14.3576 1.58532 15.3891 2.62718C16.4205 3.66905 17 5.08213 17 6.55556V11" stroke="#D0CEF6" stroke-width="2" stroke-linecap="round" stroke-linejoin="round"/>
</svg>
