<svg width="65" height="65" viewBox="0 0 65 65" fill="none" xmlns="http://www.w3.org/2000/svg">
<path d="M32.5 2.70834C26.6078 2.70834 20.8478 4.45559 15.9486 7.72914C11.0494 11.0027 7.23094 15.6555 4.97608 21.0992C2.72122 26.5429 2.13125 32.533 3.28076 38.3121C4.43028 44.0911 7.26766 49.3995 11.4341 53.5659C15.6005 57.7323 20.9089 60.5697 26.6879 61.7192C32.4669 62.8687 38.4571 62.2788 43.9008 60.0239C49.3445 57.769 53.9973 53.9506 57.2709 49.0514C60.5444 44.1522 62.2917 38.3922 62.2917 32.5C62.2823 24.6016 59.1406 17.0294 53.5556 11.4444C47.9706 5.8594 40.3984 2.71765 32.5 2.70834ZM32.5 56.875C27.4583 56.7578 22.5584 55.1832 18.3923 52.3413C20.1703 50.3607 22.3454 48.7766 24.776 47.6923C27.2067 46.6079 29.8384 46.0475 32.5 46.0475C35.1616 46.0475 37.7933 46.6079 40.224 47.6923C42.6546 48.7766 44.8297 50.3607 46.6077 52.3413C42.4763 55.2534 37.5544 56.8351 32.5 56.875ZM50.6296 48.7337C48.3483 46.1826 45.5543 44.1417 42.4302 42.7443C39.3062 41.347 35.9223 40.6247 32.5 40.6247C29.0776 40.6247 25.6938 41.347 22.5698 42.7443C19.4457 44.1417 16.6517 46.1826 14.3704 48.7337C11.2219 45.2303 9.15594 40.8897 8.42239 36.2368C7.68884 31.584 8.31912 26.8183 10.237 22.5161C12.1549 18.2139 15.2782 14.5596 19.2293 11.9951C23.1803 9.43062 27.7897 8.06585 32.5 8.06585C37.2103 8.06585 41.8197 9.43062 45.7707 11.9951C49.7217 14.5596 52.8451 18.2139 54.763 22.5161C56.6809 26.8183 57.3111 31.584 56.5776 36.2368C55.844 40.8897 53.7781 45.2303 50.6296 48.7337ZM32.5 16.25C30.3574 16.25 28.2628 16.8854 26.4813 18.0757C24.6998 19.2661 23.3112 20.9581 22.4913 22.9376C21.6713 24.9171 21.4568 27.0954 21.8748 29.1968C22.2928 31.2983 23.3246 33.2286 24.8397 34.7437C26.3547 36.2587 28.2851 37.2905 30.3865 37.7085C32.488 38.1265 34.6662 37.912 36.6457 37.092C38.6253 36.2721 40.3172 34.8835 41.5076 33.102C42.698 31.3205 43.3333 29.226 43.3333 27.0833C43.3333 24.2102 42.192 21.4547 40.1603 19.423C38.1287 17.3914 35.3732 16.25 32.5 16.25ZM32.5 32.5C31.4287 32.5 30.3814 32.1823 29.4907 31.5871C28.5999 30.9919 27.9056 30.146 27.4956 29.1562C27.0857 28.1664 26.9784 27.0773 27.1874 26.0266C27.3964 24.9759 27.9123 24.0107 28.6698 23.2532C29.4274 22.4956 30.3925 21.9798 31.4433 21.7707C32.494 21.5617 33.5831 21.669 34.5729 22.079C35.5626 22.489 36.4086 23.1832 37.0038 24.074C37.599 24.9648 37.9167 26.012 37.9167 27.0833C37.9167 28.5199 37.346 29.8977 36.3302 30.9135C35.3143 31.9293 33.9366 32.5 32.5 32.5Z" fill="white"/>
</svg>
